<svg xmlns="http://www.w3.org/2000/svg" viewBox="0 0 800 300" style="background:#0f1117;border-radius:12px" aria-label="Stabilization window diagram">
<line x1="80" y1="30" x2="80" y2="240" stroke="#3f3f46" stroke-width="1"/>
<line x1="80" y1="240" x2="760" y2="240" stroke="#3f3f46" stroke-width="1"/>
<text x="70" y="234" text-anchor="end" fill="#71717a" font-size="9" font-family="monospace">4</text>
<text x="70" y="194" text-anchor="end" fill="#71717a" font-size="9" font-family="monospace">6</text>
<text x="70" y="154" text-anchor="end" fill="#71717a" font-size="9" font-family="monospace">8</text>
<text x="70" y="114" text-anchor="end" fill="#71717a" font-size="9" font-family="monospace">10</text>
<text x="70" y="74" text-anchor="end" fill="#71717a" font-size="9" font-family="monospace">12</text>
<text x="70" y="44" text-anchor="end" fill="#71717a" font-size="9" font-family="monospace">14</text>
<text x="28" y="140" fill="#71717a" font-size="9" font-family="monospace" transform="rotate(-90 28 140)">desired pods</text>
<line x1="80" y1="230" x2="760" y2="230" stroke="#27272a" stroke-width="0.5"/>
<line x1="80" y1="190" x2="760" y2="190" stroke="#27272a" stroke-width="0.5"/>
<line x1="80" y1="150" x2="760" y2="150" stroke="#27272a" stroke-width="0.5"/>
<line x1="80" y1="110" x2="760" y2="110" stroke="#27272a" stroke-width="0.5"/>
<line x1="80" y1="70" x2="760" y2="70" stroke="#27272a" stroke-width="0.5"/>
<text x="420" y="268" text-anchor="middle" fill="#71717a" font-size="10" font-family="monospace">time →</text>
<rect x="370" y="30" width="380" height="210" rx="4" fill="#c084fc" fill-opacity="0.06"/>
<line x1="370" y1="30" x2="370" y2="240" stroke="#c084fc" stroke-width="1" stroke-dasharray="4 3" opacity="0.5"/>
<text x="560" y="22" text-anchor="middle" fill="#c084fc" font-size="10" opacity="0.7" font-family="monospace">stabilization window (300s)</text>
<circle cx="120" cy="170" r="5" fill="#c084fc" opacity="0.2"/>
<circle cx="170" cy="130" r="5" fill="#c084fc" opacity="0.2"/>
<circle cx="220" cy="190" r="5" fill="#c084fc" opacity="0.2"/>
<circle cx="270" cy="150" r="5" fill="#c084fc" opacity="0.2"/>
<circle cx="320" cy="110" r="5" fill="#c084fc" opacity="0.2"/>
<circle cx="400" cy="150" r="6" fill="#c084fc" fill-opacity="0.3" stroke="#c084fc" stroke-width="1.5"/>
<text x="400" y="170" text-anchor="middle" fill="#c084fc" font-size="9" font-family="monospace">8</text>
<circle cx="460" cy="190" r="6" fill="#c084fc" fill-opacity="0.3" stroke="#c084fc" stroke-width="1.5"/>
<text x="460" y="210" text-anchor="middle" fill="#c084fc" font-size="9" font-family="monospace">6</text>
<circle cx="520" cy="70" r="6" fill="#c084fc" fill-opacity="0.3" stroke="#c084fc" stroke-width="1.5"/>
<text x="520" y="62" text-anchor="middle" fill="#c084fc" font-size="9" font-family="monospace">12</text>
<circle cx="580" cy="110" r="6" fill="#c084fc" fill-opacity="0.3" stroke="#c084fc" stroke-width="1.5"/>
<text x="580" y="100" text-anchor="middle" fill="#c084fc" font-size="9" font-family="monospace">10</text>
<circle cx="640" cy="130" r="6" fill="#c084fc" fill-opacity="0.3" stroke="#c084fc" stroke-width="1.5"/>
<text x="640" y="120" text-anchor="middle" fill="#c084fc" font-size="9" font-family="monospace">9</text>
<circle cx="700" cy="170" r="6" fill="#c084fc" fill-opacity="0.3" stroke="#c084fc" stroke-width="1.5"/>
<text x="700" y="190" text-anchor="middle" fill="#c084fc" font-size="9" font-family="monospace">7</text>
<line x1="370" y1="70" x2="750" y2="70" stroke="#c084fc" stroke-width="2"/>
<text x="755" y="65" fill="#c084fc" font-size="10" font-weight="600" font-family="monospace">max = 12</text>
<text x="755" y="78" fill="#c084fc" font-size="9" opacity="0.7" font-family="monospace">stabilized output</text>
<text x="120" y="288" fill="#52525b" font-size="9" font-family="monospace">expired (no effect)</text>
<text x="500" y="288" fill="#c084fc" font-size="9" text-anchor="middle" font-family="monospace">active window — max of all dots wins</text>
</svg>
