<svg xmlns="http://www.w3.org/2000/svg" viewBox="0 0 800 220" style="background:#0f1117;border-radius:12px" aria-label="Clamping number line diagram">
<line x1="60" y1="100" x2="740" y2="100" stroke="#3f3f46" stroke-width="2"/>
<line x1="100" y1="92" x2="100" y2="108" stroke="#52525b" stroke-width="1"/>
<text x="100" y="124" text-anchor="middle" fill="#71717a" font-size="10" font-family="monospace">0</text>
<line x1="160" y1="92" x2="160" y2="108" stroke="#34d399" stroke-width="2"/>
<text x="160" y="124" text-anchor="middle" fill="#34d399" font-size="11" font-weight="600" font-family="monospace">1</text>
<text x="160" y="140" text-anchor="middle" fill="#34d399" font-size="9" opacity="0.7" font-family="monospace">min</text>
<line x1="220" y1="95" x2="220" y2="105" stroke="#52525b" stroke-width="1"/>
<text x="220" y="124" text-anchor="middle" fill="#71717a" font-size="10" font-family="monospace">2</text>
<line x1="280" y1="95" x2="280" y2="105" stroke="#52525b" stroke-width="1"/>
<line x1="340" y1="95" x2="340" y2="105" stroke="#52525b" stroke-width="1"/>
<line x1="400" y1="95" x2="400" y2="105" stroke="#52525b" stroke-width="1"/>
<line x1="460" y1="95" x2="460" y2="105" stroke="#52525b" stroke-width="1"/>
<text x="460" y="124" text-anchor="middle" fill="#71717a" font-size="10" font-family="monospace">6</text>
<line x1="520" y1="95" x2="520" y2="105" stroke="#52525b" stroke-width="1"/>
<line x1="580" y1="95" x2="580" y2="105" stroke="#52525b" stroke-width="1"/>
<text x="580" y="124" text-anchor="middle" fill="#71717a" font-size="10" font-family="monospace">8</text>
<line x1="640" y1="92" x2="640" y2="108" stroke="#34d399" stroke-width="2"/>
<text x="640" y="124" text-anchor="middle" fill="#34d399" font-size="11" font-weight="600" font-family="monospace">10</text>
<text x="640" y="140" text-anchor="middle" fill="#34d399" font-size="9" opacity="0.7" font-family="monospace">max</text>
<line x1="700" y1="95" x2="700" y2="105" stroke="#52525b" stroke-width="1"/>
<text x="700" y="124" text-anchor="middle" fill="#71717a" font-size="10" font-family="monospace">12</text>
<rect x="160" y="88" width="480" height="24" rx="4" fill="#34d399" fill-opacity="0.05"/>
<circle cx="460" cy="55" r="5" fill="#34d399" fill-opacity="0.3" stroke="#34d399" stroke-width="1.5"/>
<line x1="460" y1="61" x2="460" y2="88" stroke="#34d399" stroke-width="1.5"/>
<polygon points="456,85 460,92 464,85" fill="#34d399"/>
<text x="460" y="44" text-anchor="middle" fill="#34d399" font-size="10" font-weight="500" font-family="monospace">7 → 7</text>
<text x="460" y="32" text-anchor="middle" fill="#34d399" font-size="8" opacity="0.7" font-family="monospace">passes through</text>
<circle cx="700" cy="170" r="5" fill="#fb7185" fill-opacity="0.3" stroke="#fb7185" stroke-width="1.5"/>
<line x1="700" y1="164" x2="700" y2="150" stroke="#fb7185" stroke-width="1" stroke-dasharray="3 2"/>
<path d="M 695 150 Q 670 138 645 113" fill="none" stroke="#fb7185" stroke-width="1.5"/>
<polygon points="648,117 642,111 650,113" fill="#fb7185"/>
<text x="700" y="188" text-anchor="middle" fill="#fb7185" font-size="10" font-weight="500" font-family="monospace">12 → 10</text>
<text x="700" y="200" text-anchor="middle" fill="#fb7185" font-size="8" opacity="0.7" font-family="monospace">clamped down</text>
<circle cx="100" cy="170" r="5" fill="#fbbf24" fill-opacity="0.3" stroke="#fbbf24" stroke-width="1.5"/>
<line x1="100" y1="164" x2="100" y2="150" stroke="#fbbf24" stroke-width="1" stroke-dasharray="3 2"/>
<path d="M 105 150 Q 130 138 155 113" fill="none" stroke="#fbbf24" stroke-width="1.5"/>
<polygon points="152,117 158,111 150,113" fill="#fbbf24"/>
<text x="100" y="188" text-anchor="middle" fill="#fbbf24" font-size="10" font-weight="500" font-family="monospace">0 → 1</text>
<text x="100" y="200" text-anchor="middle" fill="#fbbf24" font-size="8" opacity="0.7" font-family="monospace">clamped up</text>
</svg>
