<svg xmlns="http://www.w3.org/2000/svg" viewBox="0 0 800 90" style="background:#0f1117;border-radius:12px" aria-label="HPA 4-stage pipeline overview">
<rect x="10" y="15" width="160" height="60" rx="12" fill="#fbbf24" fill-opacity="0.12" stroke="#fbbf24" stroke-width="1.5"/>
<text x="90" y="38" text-anchor="middle" fill="#fbbf24" font-size="11" font-weight="600" font-family="monospace">Stage 1</text>
<text x="90" y="56" text-anchor="middle" fill="#fbbf24" font-size="13" font-weight="700" font-family="monospace">Formula</text>
<text x="90" y="70" text-anchor="middle" fill="#fbbf24" font-size="9" opacity="0.7" font-family="monospace">Propose</text>
<line x1="175" y1="45" x2="205" y2="45" stroke="#52525b" stroke-width="1.5"/>
<polygon points="205,41 213,45 205,49" fill="#52525b"/>
<rect x="218" y="15" width="160" height="60" rx="12" fill="#c084fc" fill-opacity="0.12" stroke="#c084fc" stroke-width="1.5"/>
<text x="298" y="38" text-anchor="middle" fill="#c084fc" font-size="11" font-weight="600" font-family="monospace">Stage 2</text>
<text x="298" y="56" text-anchor="middle" fill="#c084fc" font-size="13" font-weight="700" font-family="monospace">Stabilization</text>
<text x="298" y="70" text-anchor="middle" fill="#c084fc" font-size="9" opacity="0.7" font-family="monospace">Smooth</text>
<line x1="383" y1="45" x2="413" y2="45" stroke="#52525b" stroke-width="1.5"/>
<polygon points="413,41 421,45 413,49" fill="#52525b"/>
<rect x="426" y="15" width="160" height="60" rx="12" fill="#fb7185" fill-opacity="0.12" stroke="#fb7185" stroke-width="1.5"/>
<text x="506" y="38" text-anchor="middle" fill="#fb7185" font-size="11" font-weight="600" font-family="monospace">Stage 3</text>
<text x="506" y="56" text-anchor="middle" fill="#fb7185" font-size="13" font-weight="700" font-family="monospace">Rate Limit</text>
<text x="506" y="70" text-anchor="middle" fill="#fb7185" font-size="9" opacity="0.7" font-family="monospace">Pace</text>
<line x1="591" y1="45" x2="621" y2="45" stroke="#52525b" stroke-width="1.5"/>
<polygon points="621,41 629,45 621,49" fill="#52525b"/>
<rect x="634" y="15" width="150" height="60" rx="12" fill="#34d399" fill-opacity="0.12" stroke="#34d399" stroke-width="1.5"/>
<text x="709" y="38" text-anchor="middle" fill="#34d399" font-size="11" font-weight="600" font-family="monospace">Stage 4</text>
<text x="709" y="56" text-anchor="middle" fill="#34d399" font-size="13" font-weight="700" font-family="monospace">Clamp</text>
<text x="709" y="70" text-anchor="middle" fill="#34d399" font-size="9" opacity="0.7" font-family="monospace">Bound</text>
</svg>
